<mxfile host="app.diagrams.net" modified="2021-02-24T08:14:10.468Z" agent="5.0 (Windows NT 10.0; Win64; x64) AppleWebKit/537.36 (KHTML, like Gecko) Chrome/88.0.4324.182 Safari/537.36 Edg/88.0.705.74" etag="1nk6UXmknQKlV-MKMJ6k" version="14.4.2" type="github">
  <diagram id="6rLCkDM9zTHyaXGtFSec" name="Page-1">
    <mxGraphModel dx="2062" dy="762" grid="1" gridSize="10" guides="1" tooltips="1" connect="1" arrows="1" fold="1" page="1" pageScale="1" pageWidth="1169" pageHeight="1654" math="0" shadow="0">
      <root>
        <mxCell id="0" />
        <mxCell id="1" parent="0" />
        <mxCell id="GEysVY3bEIP2pJE54w1b-7" style="edgeStyle=orthogonalEdgeStyle;rounded=0;orthogonalLoop=1;jettySize=auto;html=1;entryX=0;entryY=0.5;entryDx=0;entryDy=0;" edge="1" parent="1" source="GEysVY3bEIP2pJE54w1b-1" target="GEysVY3bEIP2pJE54w1b-6">
          <mxGeometry relative="1" as="geometry" />
        </mxCell>
        <mxCell id="GEysVY3bEIP2pJE54w1b-10" style="edgeStyle=orthogonalEdgeStyle;rounded=0;orthogonalLoop=1;jettySize=auto;html=1;entryX=0;entryY=0.5;entryDx=0;entryDy=0;" edge="1" parent="1" source="GEysVY3bEIP2pJE54w1b-1" target="GEysVY3bEIP2pJE54w1b-4">
          <mxGeometry relative="1" as="geometry" />
        </mxCell>
        <mxCell id="GEysVY3bEIP2pJE54w1b-11" style="edgeStyle=orthogonalEdgeStyle;rounded=0;orthogonalLoop=1;jettySize=auto;html=1;" edge="1" parent="1" source="GEysVY3bEIP2pJE54w1b-1" target="GEysVY3bEIP2pJE54w1b-5">
          <mxGeometry relative="1" as="geometry" />
        </mxCell>
        <mxCell id="GEysVY3bEIP2pJE54w1b-1" value="Mother Keys" style="rounded=0;whiteSpace=wrap;html=1;" vertex="1" parent="1">
          <mxGeometry x="80" y="220" width="120" height="60" as="geometry" />
        </mxCell>
        <mxCell id="GEysVY3bEIP2pJE54w1b-2" value="Hash by minute" style="rounded=0;whiteSpace=wrap;html=1;" vertex="1" parent="1">
          <mxGeometry x="585" y="230" width="120" height="60" as="geometry" />
        </mxCell>
        <mxCell id="GEysVY3bEIP2pJE54w1b-3" value="" style="rounded=0;whiteSpace=wrap;html=1;" vertex="1" parent="1">
          <mxGeometry x="800" y="230" width="120" height="60" as="geometry" />
        </mxCell>
        <mxCell id="GEysVY3bEIP2pJE54w1b-9" style="edgeStyle=orthogonalEdgeStyle;rounded=0;orthogonalLoop=1;jettySize=auto;html=1;entryX=0;entryY=0.5;entryDx=0;entryDy=0;" edge="1" parent="1" source="GEysVY3bEIP2pJE54w1b-4" target="GEysVY3bEIP2pJE54w1b-8">
          <mxGeometry relative="1" as="geometry" />
        </mxCell>
        <mxCell id="GEysVY3bEIP2pJE54w1b-4" value="Verification" style="rounded=0;whiteSpace=wrap;html=1;" vertex="1" parent="1">
          <mxGeometry x="320" y="360" width="120" height="60" as="geometry" />
        </mxCell>
        <mxCell id="GEysVY3bEIP2pJE54w1b-5" value="Activation" style="rounded=0;whiteSpace=wrap;html=1;" vertex="1" parent="1">
          <mxGeometry x="320" y="220" width="120" height="60" as="geometry" />
        </mxCell>
        <mxCell id="GEysVY3bEIP2pJE54w1b-13" style="edgeStyle=orthogonalEdgeStyle;rounded=0;orthogonalLoop=1;jettySize=auto;html=1;entryX=0;entryY=0.5;entryDx=0;entryDy=0;" edge="1" parent="1" source="GEysVY3bEIP2pJE54w1b-6" target="GEysVY3bEIP2pJE54w1b-12">
          <mxGeometry relative="1" as="geometry" />
        </mxCell>
        <mxCell id="GEysVY3bEIP2pJE54w1b-6" value="Generation" style="rounded=0;whiteSpace=wrap;html=1;" vertex="1" parent="1">
          <mxGeometry x="320" y="60" width="120" height="60" as="geometry" />
        </mxCell>
        <mxCell id="GEysVY3bEIP2pJE54w1b-8" value="Hash by minute" style="rounded=0;whiteSpace=wrap;html=1;" vertex="1" parent="1">
          <mxGeometry x="600" y="360" width="120" height="60" as="geometry" />
        </mxCell>
        <mxCell id="GEysVY3bEIP2pJE54w1b-15" style="edgeStyle=orthogonalEdgeStyle;rounded=0;orthogonalLoop=1;jettySize=auto;html=1;" edge="1" parent="1" source="GEysVY3bEIP2pJE54w1b-12" target="GEysVY3bEIP2pJE54w1b-14">
          <mxGeometry relative="1" as="geometry" />
        </mxCell>
        <mxCell id="GEysVY3bEIP2pJE54w1b-12" value="Shuffle" style="rounded=0;whiteSpace=wrap;html=1;" vertex="1" parent="1">
          <mxGeometry x="560" y="60" width="120" height="60" as="geometry" />
        </mxCell>
        <mxCell id="GEysVY3bEIP2pJE54w1b-14" value="Shuffle" style="rounded=0;whiteSpace=wrap;html=1;" vertex="1" parent="1">
          <mxGeometry x="760" y="60" width="120" height="60" as="geometry" />
        </mxCell>
      </root>
    </mxGraphModel>
  </diagram>
</mxfile>
